<svg width="200" height="357" viewBox="0 0 200 357" fill="none" xmlns="http://www.w3.org/2000/svg">
<path d="M0 320.052C0 309.496 2.2229 300.699 6.66869 293.661C11.1145 286.464 17.1264 282.865 24.7045 282.865C32.2825 282.865 38.2944 286.464 42.7402 293.661C47.186 300.699 49.4089 309.496 49.4089 320.052C49.4089 330.609 47.186 339.406 42.7402 346.444C38.2944 353.481 32.2825 357 24.7045 357C17.1264 357 11.1145 353.481 6.66869 346.444C2.2229 339.406 0 330.609 0 320.052Z" fill="black"/>
<path d="M200 298.46V354.361H69.9606V306.617L129.676 186.417C135.435 173.942 139.931 162.905 143.165 153.308C146.398 143.712 148.722 135.155 150.136 127.637C151.551 119.96 152.258 112.682 152.258 105.804C152.258 95.5679 151.5 86.7708 149.985 79.4133C148.469 71.8958 146.196 66.1378 143.165 62.1391C140.234 57.9805 136.597 55.9012 132.252 55.9012C126.998 55.9012 122.653 58.4604 119.218 63.5786C115.783 68.6969 113.206 75.7345 111.488 84.6915C109.872 93.4886 109.063 103.485 109.063 114.681H66.4747C66.4747 93.8884 69.1523 74.7749 74.5074 57.3407C79.9636 39.7466 87.5922 25.8313 97.3932 15.5948C107.295 5.19825 119.167 0 133.01 0C146.448 0 157.765 3.99866 166.96 11.996C176.154 19.9933 183.076 31.4294 187.724 46.3044C192.472 61.0195 194.847 78.6936 194.847 99.3266C194.847 110.843 193.887 122.119 191.967 133.155C190.047 144.032 187.319 154.908 183.783 165.784C180.247 176.501 175.851 187.457 170.597 198.653C165.444 209.849 159.685 221.446 153.319 233.442L124.523 298.46H200Z" fill="black"/>
</svg>
