<svg width="797" height="357" viewBox="0 0 797 357" fill="none" xmlns="http://www.w3.org/2000/svg">
<path d="M90.2475 5.00802V352.23H49.5942V5.00802H90.2475ZM140.82 5.00802V62.9579H0V5.00802H140.82Z" fill="black"/>
<path d="M164.709 5.00802H229.95C243.547 5.00802 255.142 8.98263 264.735 16.9319C274.328 24.8811 281.686 36.646 286.808 52.2265C291.931 67.8069 294.492 87.0441 294.492 109.938C294.492 128.698 293.002 144.756 290.021 158.11C287.041 171.306 282.803 182.355 277.309 191.259C271.814 200.003 265.248 206.998 257.611 212.244L245.177 224.884H192.23L192.09 166.934H228.832C234.42 166.934 239.03 164.867 242.662 160.733C246.388 156.441 249.135 150.479 250.905 142.848C252.768 135.057 253.699 125.995 253.699 115.661C253.699 104.691 252.861 95.3113 251.184 87.521C249.601 79.5718 247.04 73.5304 243.501 69.3968C240.055 65.1042 235.538 62.9579 229.95 62.9579H205.641V352.23H164.709V5.00802ZM257.052 352.23L219.751 197.459L262.64 197.22L300.778 348.892V352.23H257.052Z" fill="black"/>
<path d="M396.614 67.012L352.887 352.23H309.719L373.284 5.00802H400.246L396.614 67.012ZM431.12 352.23L387.114 67.012L383.063 5.00802H410.445L474.568 352.23H431.12ZM432.657 222.737V280.687H340.873V222.737H432.657Z" fill="black"/>
<path d="M587.866 236.569H628.519C627.961 262.643 624.887 284.662 619.299 302.627C613.711 320.434 605.748 333.947 595.41 343.168C585.165 352.389 572.778 357 558.249 357C546.98 357 536.968 353.82 528.213 347.461C519.459 340.943 512.008 331.403 505.861 318.844C499.714 306.284 495.057 290.783 491.891 272.341C488.817 253.739 487.281 232.356 487.281 208.19V149.287C487.281 125.121 488.91 103.737 492.17 85.1363C495.523 66.5351 500.273 50.9546 506.42 38.3948C512.66 25.676 520.157 16.1369 528.912 9.77756C537.76 3.25919 547.725 0 558.808 0C573.616 0 586.003 4.76954 595.969 14.3086C605.934 23.8477 613.618 37.7589 619.02 56.0421C624.515 74.1663 627.821 96.3447 628.938 122.577H588.006C587.82 106.043 586.748 93.0855 584.793 83.7054C582.93 74.1663 579.95 67.489 575.852 63.6733C571.754 59.6987 566.073 57.7114 558.808 57.7114C553.406 57.7114 548.75 59.3808 544.838 62.7194C540.926 65.8991 537.713 71.0661 535.198 78.2204C532.684 85.3748 530.821 94.7548 529.61 106.361C528.493 117.967 527.934 132.116 527.934 148.81V208.19C527.934 224.566 528.446 238.556 529.471 250.162C530.495 261.609 532.125 270.989 534.36 278.303C536.595 285.616 539.622 290.942 543.441 294.281C547.352 297.619 552.289 299.289 558.249 299.289C565.141 299.289 570.683 297.54 574.874 294.042C579.158 290.544 582.325 284.265 584.374 275.202C586.422 266.14 587.587 253.263 587.866 236.569Z" fill="black"/>
<path d="M695.018 5.00802V352.23H654.085V5.00802H695.018ZM796.022 5.00802L730.083 177.427L689.709 263.279L681.886 193.405L708.01 119L746.288 5.00802H796.022ZM748.803 352.23L704.378 192.689L734.413 147.379L797 352.23H748.803Z" fill="black"/>
</svg>
